<?xml version="1.0" encoding="UTF-8"?>
<svg id="Layer_1" data-name="Layer 1" xmlns="http://www.w3.org/2000/svg" viewBox="0 0 94.83 1303.12">
  <defs>
    <style>
      .cls-1 {
        fill: #39c5bb;
      }
    </style>
  </defs>
  <path class="cls-1" d="M92.02,651.56c.32-15.56-1.75-30.98-7.11-46.04-4.91-18.18-11.94-36.25-19.72-53.87-25.89-58.63-59.78-117.95-49.52-178.09,10.42-61.11,66.17-120.93,44.58-181.1C47.01,155.56,5.23,122.14,4.75,84.48c-.4-31.39,28.1-60.46,37.83-91.36H-488.07v1316.84l530.63.04h.01c-9.72-30.9-38.22-59.97-37.83-91.36.47-37.66,42.25-71.08,55.49-108,21.59-60.17-34.16-119.99-44.58-181.1-10.25-60.14,23.64-119.45,49.52-178.09,7.78-17.62,14.81-35.69,19.72-53.87,5.35-15.06,7.43-30.48,7.11-46.04Z"/>
</svg>